<svg xmlns="http://www.w3.org/2000/svg" width="512" height="512" viewBox="0 0 512 512" fill="none">
  <!-- Abgerundetes Icon-Hintergrund-Quadrat wie im Screenshot -->
  <rect width="512" height="512" rx="128" fill="#122b1b"/>
  <!-- Das Tabellen-Icon in HSL-Grün (Vibrant Emerald) -->
  <g transform="translate(96, 96) scale(13.333)" stroke="#22c35d" stroke-width="1.8" stroke-linecap="round" stroke-linejoin="round">
    <path d="M6 22a2 2 0 0 1-2-2V4a2 2 0 0 1 2-2h8a2.4 2.4 0 0 1 1.704.706l3.588 3.588A2.4 2.4 0 0 1 20 8v12a2 2 0 0 1-2 2z"/>
    <path d="M14 2v5a1 1 0 0 0 1 1h5"/>
    <path d="M8 13h2"/>
    <path d="M14 13h2"/>
    <path d="M8 17h2"/>
    <path d="M14 17h2"/>
  </g>
</svg>
